HIERARCHY
ROOT Hips
{
	OFFSET 0.000000 0.000000 0.000000 
	CHANNELS 6 Xposition Yposition Zposition Yrotation Zrotation Xrotation 
	JOINT Lumbar
	{
		OFFSET 0.000000 0.000000 0.000000 
		CHANNELS 3 Zrotation Xrotation Yrotation
		JOINT Neck
		{
			OFFSET 0.000000 0.445665 0.000000 
			CHANNELS 3 Zrotation Xrotation Yrotation
			End Site
			{
				OFFSET 0.000000 0.227535 0.000000 
			}
		}
		JOINT RightShoulder
		{
			OFFSET 0.019635 0.377685 0.194865 
			CHANNELS 3 Zrotation Xrotation Yrotation
			JOINT RightElbow
			{
				OFFSET 0.000000 -0.243375 0.000000 
				CHANNELS 2 Zrotation Yrotation
				JOINT RightWrist
				{
					OFFSET 0.000000 -0.264825 0.000000 
					CHANNELS 2 Zrotation Xrotation
					End Site
					{
						OFFSET 0.006600 -0.176220 0.000990 
					}
				}
			}
		}
		JOINT LeftShoulder
		{
			OFFSET 0.019635 0.377685 -0.194865 
			CHANNELS 3 Zrotation Xrotation Yrotation
			JOINT LeftElbow
			{
				OFFSET 0.000000 -0.243375 0.000000 
				CHANNELS 2 Zrotation Yrotation
				JOINT LeftWrist
				{
					OFFSET 0.000000 -0.264825 0.000000 
					CHANNELS 2 Zrotation Xrotation
					End Site
					{
						OFFSET 0.006600 -0.176220 -0.000990 
					}
				}
			}
		}
	}
	JOINT RightHip
	{
		OFFSET 0.052140 -0.069960 0.075570 
		CHANNELS 3 Zrotation Xrotation Yrotation
		JOINT RightKnee
		{
			OFFSET 0.000000 -0.402270 0.000000 
			CHANNELS 1 Zrotation
			JOINT RightAnkle
			{
				OFFSET 0.000000 -0.404085 0.000000 
				CHANNELS 3 Zrotation Xrotation Yrotation
				End Site
				{
					OFFSET 0.204105 -0.089430 0.008415 
				}
			}
		}
	}
	JOINT LeftHip
	{
		OFFSET 0.052140 -0.069960 -0.075570 
		CHANNELS 3 Zrotation Xrotation Yrotation
		JOINT LeftKnee
		{
			OFFSET 0.000000 -0.402270 0.000000 
			CHANNELS 1 Zrotation
			JOINT LeftAnkle
			{
				OFFSET 0.000000 -0.404085 0.000000 
				CHANNELS 3 Zrotation Xrotation Yrotation
				End Site
				{
					OFFSET 0.204105 -0.089430 -0.008415 
				}
			}
		}
	}
}
MOTION
Frames: 16
Frame Time: 0.02
-0.00112 -0.00018 -3e-05 -155.0556 -38.73101 -1.54765 48.72128 1.57883 -6.38893 2.43892 0.98771 -0.12419 -15.83316 -6.34438 -23.36159 26.98419 154.87212 21.12637 10.87692 -20.64035 5.92547 15.15332 44.77609 -152.32836 29.50321 -10.20087 41.78632 1.30757 -6.00891 -19.15768 -6.11211 -3.02867 -2.15798 44.64697 2.08456 9.3435 -24.93512 -6.25091 2.41892 1.87166
-0.00169 -0.00019 0.0003 -155.05729 -38.66351 -1.54663 48.80332 1.58977 -6.31434 2.02554 0.97797 -0.12522 -16.9603 -6.76335 -21.67585 27.15733 148.56015 19.46704 9.91729 -22.27013 5.94896 15.47086 44.64469 -150.84932 29.20206 -9.7912 41.65763 1.26615 -6.23322 -19.1521 -6.11475 -2.99071 -2.14011 44.53134 2.01498 9.03124 -24.92944 -6.25085 2.45775 1.8912
-0.00226 -0.00021 0.00063 -155.05889 -38.59616 -1.5456 48.88516 1.60069 -6.24001 1.61331 0.96821 -0.12625 -18.08406 -7.18099 -19.99521 27.32999 142.2676 17.81286 8.96063 -23.89557 5.9751 15.78049 44.51358 -149.36755 28.8995 -9.38161 41.52926 1.22488 -6.45662 -19.14654 -6.11738 -2.95289 -2.12231 44.41599 1.94554 8.71967 -24.92377 -6.25079 2.49646 1.91068
-0.00282 -0.00023 0.00096 -155.06056 -38.52886 -1.54457 48.96696 1.6116 -6.16567 1.20117 0.95848 -0.12728 -19.20778 -7.59867 -18.31465 27.50261 135.97505 16.15864 8.00397 -25.52051 5.99905 16.09573 44.38256 -147.89165 28.59882 -8.97298 41.40095 1.18359 -6.6802 -19.14097 -6.12002 -2.91506 -2.1045 44.3007 1.87616 8.40832 -24.9181 -6.25074 2.53517 1.93016
-0.00339 -0.00024 0.00129 -155.06236 -38.46143 -1.54356 49.04895 1.62253 -6.09105 0.78797 0.94879 -0.1283 -20.33472 -8.01769 -16.629 27.6757 129.66312 14.49927 7.04434 -27.14935 6.01907 16.422 44.25129 -146.42185 28.30065 -8.56479 41.27236 1.14213 -6.90479 -19.13539 -6.12267 -2.87706 -2.08661 44.18515 1.80666 8.09639 -24.91243 -6.25068 2.57397 1.94968
-0.00396 -0.00026 0.00161 -155.06351 -38.39426 -1.54249 49.13047 1.6334 -6.01732 0.37784 0.93889 -0.12933 -21.45167 -8.4324 -14.95896 27.84745 123.41169 12.8561 6.09397 -28.76743 6.05792 16.69701 44.12053 -144.91542 27.98901 -8.15236 41.14445 1.10127 -7.12567 -19.12988 -6.12526 -2.83963 -2.06901 44.07022 1.73736 7.78563 -24.90678 -6.25062 2.6125 1.9691
-0.00453 -0.00027 0.00194 -155.06598 -38.32664 -1.54154 49.21284 1.64439 -5.94191 -0.03809 0.92942 -0.13036 -22.58774 -8.8553 -13.25952 28.02169 117.04567 11.18221 5.12606 -30.40582 6.05953 17.07328 43.98888 -143.4826 27.70424 -7.74866 41.0153 1.05925 -7.35373 -19.12423 -6.12796 -2.80111 -2.05084 43.95417 1.66772 7.4728 -24.90108 -6.25056 2.65155 1.98871
-0.00509 -0.00029 0.00227 -155.06722 -38.25944 -1.54047 49.29443 1.65527 -5.86803 -0.44858 0.91954 -0.13139 -23.70574 -9.2707 -11.5869 28.19368 110.78486 9.53652 4.17425 -32.02466 6.09424 17.35908 43.85808 -141.9851 27.39574 -7.33741 40.88731 1.01829 -7.57523 -19.1187 -6.13057 -2.7636 -2.0332 43.83917 1.59842 7.16199 -24.89543 -6.2505 2.69011 2.00813
-0.00565 -0.0003 0.0026 -155.06701 -38.19271 -1.5393 49.3751 1.66602 -5.79605 -0.85298 0.90919 -0.13241 -24.80384 -9.67688 -9.94747 28.36282 104.65185 7.92511 3.24202 -33.62365 6.17483 17.5216 43.72814 -140.39392 27.0535 -6.91457 40.76061 0.97867 -7.78854 -19.11332 -6.13304 -2.72728 -2.01621 43.72534 1.52941 6.85304 -24.88983 -6.25045 2.72811 2.02736
-0.00625 -0.00032 0.00293 -155.07531 -38.12312 -1.53882 49.46114 1.67753 -5.71325 -1.2941 0.90165 -0.13347 -26.02305 -10.13598 -8.11825 28.54804 97.7809 6.11586 2.19682 -35.34908 6.00778 18.35514 43.5927 -139.29761 26.89113 -6.55126 40.62612 0.93145 -8.04847 -19.10711 -6.13623 -2.68397 -1.99546 43.60442 1.45834 6.53153 -24.88391 -6.25038 2.76945 2.04781
-0.00676 -0.00033 0.00325 -155.06556 -38.05966 -1.53684 49.53582 1.68741 -5.65316 -1.65661 0.88813 -0.13444 -26.98246 -10.48347 -6.68886 28.69953 92.46905 4.72453 1.39023 -36.79976 6.35246 17.79818 43.46923 -137.18635 26.35864 -6.06707 40.50829 0.90022 -8.21033 -19.10265 -6.13793 -2.6555 -1.98267 43.49869 1.39189 6.23777 -24.87869 -6.25034 2.80366 2.06562
-0.00702 -0.00035 0.0035 -155.00633 -38.01245 -1.53115 49.57923 1.693 -5.65707 -1.81064 0.85836 -0.13512 -27.25654 -10.52097 -6.37348 28.75624 91.46689 4.48915 1.24353 -37.55385 8.20538 13.17573 43.37559 -132.01821 24.72186 -5.20844 40.43489 0.91368 -8.09825 -19.10307 -6.13547 -2.66731 -1.99173 43.43327 1.33585 6.01013 -24.87528 -6.2504 2.81897 2.07684
-0.00719 -0.00036 0.00373 -154.92893 -37.97152 -1.52387 49.61116 1.6969 -5.68353 -1.88417 0.82253 -0.13571 -27.26416 -10.44675 -6.45755 28.77962 92.03043 4.67339 1.33631 -38.02052 10.5534 7.20167 43.29442 -125.87999 22.7293 -4.23618 40.3785 0.94302 -7.88876 -19.10524 -6.13152 -2.69407 -2.00877 43.38341 1.28481 5.81193 -24.87261 -6.25048 2.82703 2.08532
-0.00739 -0.00038 0.00396 -154.85983 -37.92809 -1.51708 49.64849 1.70148 -5.69846 -1.9901 0.78944 -0.13634 -27.37629 -10.42651 -6.34641 28.81957 91.8493 4.65751 1.31504 -38.58246 12.60635 2.01126 43.20965 -120.36463 20.95813 -3.34397 40.31514 0.9646 -7.72678 -19.10658 -6.1283 -2.71427 -2.02218 43.32726 1.23305 5.60716 -24.86968 -6.25053 2.83799 2.09461
-0.00762 -0.0004 0.00422 -154.79063 -37.88313 -1.51134 49.68536 1.70648 -5.7185 -2.11445 0.75655 -0.13696 -27.55981 -10.39389 -6.28928 28.85301 91.78653 4.67542 1.31273 -39.29687 14.95406 -3.89048 43.11664 -114.08396 18.93641 -2.33219 40.24846 0.98863 -7.55021 -19.10806 -6.12489 -2.7336 -2.03567 43.26764 1.175 5.37486 -24.86641 -6.25068 2.85054 2.10566
-0.00777 -0.00041 0.00442 -154.7172 -37.8429 -1.50296 49.72006 1.71015 -5.73367 -2.1802 0.72158 -0.13759 -27.52907 -10.35883 -6.22005 28.89267 91.87928 4.731 1.33213 -39.62081 16.80773 -8.63922 43.04314 -109.16111 17.34945 -1.54177 40.19293 1.01117 -7.38183 -19.10968 -6.1215 -2.75816 -2.05083 43.21919 1.13089 5.20545 -24.86404 -6.25062 2.85814 2.11248
